IKResults
version=1
nRows=17
nColumns=40
inDegrees=yes

Units are S.I. units (second, meters, Newtons, ...)
Angles are in degrees.

endheader
time	pelvis_tilt	pelvis_list	pelvis_rotation	pelvis_tx	pelvis_ty	pelvis_tz	hip_flexion_r	hip_adduction_r	hip_rotation_r	knee_angle_r	knee_angle_r_beta	ankle_angle_r	subtalar_angle_r	mtp_angle_r	hip_flexion_l	hip_adduction_l	hip_rotation_l	knee_angle_l	knee_angle_l_beta	ankle_angle_l	subtalar_angle_l	mtp_angle_l	lumbar_extension	lumbar_bending	lumbar_rotation	arm_flex_r	arm_add_r	arm_rot_r	elbow_flex_r	pro_sup_r	wrist_flex_r	wrist_dev_r	arm_flex_l	arm_add_l	arm_rot_l	elbow_flex_l	pro_sup_l	wrist_flex_l	wrist_dev_l
      0.86000000	     13.39241486	     -3.15719942	      7.65565820	     -0.34544457	      0.91171634	     -1.47644883	     13.58975479	     -0.27824888	    -29.44873946	    -18.26435307	     -0.31877310	      3.23561456	      9.40912962	    -11.53968115	    -29.27425345	      6.75600148	      5.20030982	    -22.00353733	     -0.38403417	     12.93081712	     -2.71130936	     -9.94592013	    -17.90780654	      5.06395175	     -9.88824422	    -13.78189202	     -9.50113750	    -12.04037057	     15.41448232	     89.95437384	      0.00000000	      0.00000000	     12.54572088	     11.50229401	     14.04797605	     54.03699566	     89.95437384	      0.00000000	      0.00000000
      0.87000000	     13.13818218	     -3.20070884	      7.78449973	     -0.32960268	      0.91081196	     -1.47584273	     14.02895767	     -0.18792205	    -28.44508819	    -20.26590012	     -0.35370668	      2.35093701	      6.22784143	    -10.79326108	    -29.28277381	      6.85485978	      4.16841743	    -23.23823757	     -0.40558376	     11.65245007	     -1.03172922	     -9.47071697	    -17.39931945	      5.13937949	    -10.15647916	    -13.56489476	     -9.59962907	    -11.92594301	     14.97925256	     89.95437384	      0.00000000	      0.00000000	     12.00090401	     11.39670179	     14.31282141	     54.80879758	     89.95437384	      0.00000000	      0.00000000
      0.88000000	     12.94819323	     -3.33273690	      7.81175709	     -0.31450573	      0.91083019	     -1.47533970	     14.16482403	      0.44341351	    -25.85754838	    -20.98840281	     -0.36631673	     -0.20690496	      0.91837851	     -9.45599076	    -29.32429309	      6.64748316	      1.88677088	    -24.44642541	     -0.42667061	     10.58529685	      2.55399172	     -8.95058934	    -17.08833716	      5.37434142	    -10.15021920	    -13.33449765	     -9.73828050	    -11.87016337	     14.80932445	     89.95437384	      0.00000000	      0.00000000	     11.70702914	     11.14839409	     14.48755558	     55.15244230	     89.95437384	      0.00000000	      0.00000000
      0.89000000	     12.90804314	     -3.69533300	      7.70131123	     -0.29899193	      0.91119019	     -1.47429144	     14.34934376	      0.84079731	    -24.33197918	    -22.50909082	     -0.39285775	     -0.61406943	      0.70291076	     -9.16056063	    -29.28011059	      6.92157666	      1.13279007	    -26.05890003	     -0.45481360	      8.93314200	      2.90517299	     -8.58056182	    -16.88372531	      5.80226894	     -9.83002316	    -13.35757172	     -9.87752701	    -11.70740528	     15.08685627	     89.95437384	      0.00000000	      0.00000000	     11.41878247	     10.92217699	     14.46044222	     55.26582640	     89.95437384	      0.00000000	      0.00000000
      0.90000000	     13.01929146	     -4.18763864	      7.38032468	     -0.28344540	      0.91267129	     -1.47282695	     14.08909071	      1.90465927	    -21.73675594	    -23.43420394	     -0.40900402	     -1.66387677	     -3.62821474	     -8.57020189	    -29.22082594	      7.04801166	      0.38178290	    -27.88409701	     -0.48666930	      6.17545552	      6.57006201	     -7.88443106	    -16.84774463	      6.31070141	     -9.42614807	    -12.88297005	    -10.07486388	    -11.15217898	     14.66428859	     89.95437384	      0.00000000	      0.00000000	     11.03929306	     10.55096249	     14.86664351	     55.17488138	     89.95437384	      0.00000000	      0.00000000
      0.91000000	     13.35428811	     -4.80829038	      7.13358631	     -0.26745702	      0.91477485	     -1.47133294	     13.41398182	      2.98324105	    -20.10036752	    -24.49425147	     -0.42750534	     -2.16502612	     -5.98204809	     -7.77575677	    -29.11693754	      7.52486813	      0.36268723	    -30.06855043	     -0.52479521	      3.05886056	      8.16847442	     -7.29835864	    -17.01603664	      6.97859815	     -8.88347207	    -12.61872787	    -10.24203089	    -10.66359701	     14.60610000	     89.95437384	      0.00000000	      0.00000000	     10.63414359	     10.25009156	     14.88787193	     54.93771352	     89.95437384	      0.00000000	      0.00000000
      0.92000000	     13.91374794	     -5.37616393	      7.05697906	     -0.25131970	      0.91761477	     -1.47020784	     12.16489694	      3.91167916	    -19.41052127	    -25.10434811	     -0.43815353	     -1.88113634	     -6.41635254	     -7.29804225	    -29.00271627	      8.03730002	      0.33330933	    -32.47918346	     -0.56686869	     -0.44727530	      9.95177691	     -6.66277831	    -17.39616904	      7.65986155	     -8.47724247	    -12.34888678	    -10.41730382	    -10.21198750	     14.66558768	     89.95437384	      0.00000000	      0.00000000	     10.17850519	      9.87921460	     15.00907555	     54.55700146	     89.95437384	      0.00000000	      0.00000000
      0.93000000	     14.52574434	     -5.75632571	      6.90821301	     -0.23531690	      0.92076813	     -1.46902451	     10.73780532	      4.68999538	    -18.80523006	    -25.51703376	     -0.44535625	     -1.39226802	     -6.48362528	     -7.05723114	    -28.76040487	      8.33182782	      0.28141172	    -35.05640733	     -0.61184973	     -3.45144658	     11.38058731	     -6.15519431	    -17.86544867	      8.11627079	     -8.00642084	    -11.99538843	    -10.54527917	     -9.84052205	     14.70480221	     89.95437384	      0.00000000	      0.00000000	      9.77290313	      9.57323544	     14.97052510	     53.90225931	     89.95437384	      0.00000000	      0.00000000
      0.94000000	     15.21116538	     -6.20352070	      6.77955600	     -0.21955404	      0.92415542	     -1.46785462	      8.99686194	      5.76628147	    -17.66454691	    -25.34263939	     -0.44231250	     -1.17682054	     -6.73306993	     -6.69532939	    -28.42485629	      8.57742797	     -0.13881363	    -37.80279943	     -0.65978332	     -5.82910838	     13.02458621	     -5.55809304	    -18.44988635	      8.65442424	     -7.49444251	    -11.68934662	    -10.71306611	     -9.36969280	     15.01566783	     89.95437384	      0.00000000	      0.00000000	      9.35411495	      9.23633235	     14.95368440	     53.17757694	     89.95437384	      0.00000000	      0.00000000
      0.95000000	     15.76640766	     -6.30462045	      6.55811760	     -0.20397551	      0.92735599	     -1.46647793	      7.29215336	      6.37328166	    -16.92439904	    -25.18731715	     -0.43960161	     -0.53969228	     -7.09496165	     -6.45384768	    -27.72392255	      8.51986869	     -0.38119711	    -40.73983098	     -0.71104419	     -8.52384350	     14.13568454	     -5.04846190	    -18.92968003	      8.73877239	     -6.92556501	    -11.39583040	    -10.76014150	     -9.01351428	     15.34789510	     89.95437384	      0.00000000	      0.00000000	      8.98681571	      8.94702590	     14.86576346	     52.28350478	     89.95437384	      0.00000000	      0.00000000
      0.96000000	     16.24934853	     -6.35277404	      6.36316929	     -0.18901574	      0.93040817	     -1.46503380	      5.60955915	      6.89807616	    -16.28068789	    -24.87266130	     -0.43410983	     -0.01691980	     -7.42507294	     -6.20280101	    -26.70829639	      8.37032442	     -0.79683079	    -43.71876555	     -0.76303640	    -11.45075332	     15.10852216	     -4.53380014	    -19.41456341	      8.74876020	     -6.40626169	    -11.04241754	    -10.78675014	     -8.68171496	     15.83843516	     89.95437384	      0.00000000	      0.00000000	      8.65794541	      8.72844059	     14.70772331	     51.29556622	     89.95437384	      0.00000000	      0.00000000
      0.97000000	     16.61989246	     -6.31069468	      6.22661823	     -0.17436297	      0.93324702	     -1.46366904	      3.96366456	      7.30233135	    -15.68498231	    -24.44005819	     -0.42655948	      0.72368373	     -7.86708763	     -5.99072548	    -25.41235490	      8.16386457	     -1.24114907	    -46.63694171	     -0.81396819	    -13.88220033	     16.10860770	     -4.04594551	    -19.79003366	      8.65289825	     -5.94147232	    -10.70159245	    -10.78783799	     -8.31411204	     16.43430004	     89.95437384	      0.00000000	      0.00000000	      8.34669885	      8.52910735	     14.48439758	     50.22064727	     89.95437384	      0.00000000	      0.00000000
      0.98000000	     16.83453784	     -6.30574213	      6.20744937	     -0.16025883	      0.93575194	     -1.46240623	      2.46880714	      7.76977243	    -15.00067487	    -23.85903320	     -0.41641869	      1.19154285	     -8.42400855	     -5.60482707	    -23.82312957	      8.01319089	     -1.73591379	    -49.43613272	     -0.86282329	    -15.29920358	     17.07099261	     -3.27633600	    -20.05092245	      8.59569684	     -5.58915747	    -10.32521947	    -10.82158551	     -7.79756919	     17.14442059	     89.95437384	      0.00000000	      0.00000000	      8.00607738	      8.42581822	     14.13211639	     49.12510636	     89.95437384	      0.00000000	      0.00000000
      0.99000000	     17.06352631	     -6.11610209	      6.16142633	     -0.14602730	      0.93820089	     -1.46128990	      0.91341083	      7.92752185	    -14.56892267	    -23.35147477	     -0.40756012	      1.92852941	     -8.61029451	     -5.35149517	    -22.41903074	      7.62235978	     -2.28267416	    -51.91891946	     -0.90615609	    -14.41384481	     17.66119914	     -2.80602578	    -20.27031145	      8.31913452	     -5.16460886	     -9.95209188	    -10.79308660	     -7.26578514	     17.72091207	     89.95437384	      0.00000000	      0.00000000	      7.71228058	      8.24040040	     13.82301108	     47.85986987	     89.95437384	      0.00000000	      0.00000000
      1.00000000	     17.31379186	     -5.88787359	      6.14031825	     -0.13204895	      0.94067274	     -1.46023778	     -0.64599102	      7.93122493	    -14.51315442	    -22.88753837	     -0.39946290	      2.61753049	     -8.60219276	     -5.06802818	    -21.03153849	      7.18511722	     -2.78744528	    -54.15338711	     -0.94515491	    -12.03844882	     17.70701552	     -2.39402145	    -20.54199956	      8.00542735	     -4.83770361	     -9.47642793	    -10.79941481	     -6.65986695	     18.37421764	     89.95437384	      0.00000000	      0.00000000	      7.35995961	      8.13153028	     13.46740403	     46.56780014	     89.95437384	      0.00000000	      0.00000000
      1.01000000	     17.59106347	     -5.60261743	      6.17906539	     -0.11823417	      0.94323154	     -1.45914224	     -2.34201522	      7.90724893	    -14.39919818	    -22.22373608	     -0.38787737	      3.22392369	     -8.15721641	     -4.88645093	    -19.66392646	      6.75261774	     -3.29138478	    -56.02995105	     -0.97790713	     -9.62208001	     17.78229081	     -2.09289726	    -20.81981582	      7.62248541	     -4.58082699	     -8.94891763	    -10.74583303	     -6.13711904	     18.97561142	     89.95437384	      0.00000000	      0.00000000	      7.03142241	      8.04296985	     13.16252600	     45.13238102	     89.95437384	      0.00000000	      0.00000000
      1.02000000	     17.83956921	     -5.31794443	      6.17152818	     -0.10436770	      0.94573017	     -1.45810891	     -4.01757717	      7.83929500	    -14.32937453	    -21.53100618	     -0.37578695	      3.86747132	     -7.62027540	     -4.71636486	    -18.27723629	      6.28531154	     -3.75365035	    -57.59901313	     -1.00529243	     -7.39891055	     17.91354402	     -1.76094591	    -21.09947103	      7.23844805	     -4.26370305	     -8.50054632	    -10.75221462	     -5.57560986	     19.81301751	     89.95437384	      0.00000000	      0.00000000	      6.62849459	      7.93115938	     12.92225297	     43.73512246	     89.95437384	      0.00000000	      0.00000000
